<?xml version="1.0" encoding="utf-8"?>
<!-- Generator: Adobe Illustrator 21.0.2, SVG Export Plug-In . SVG Version: 6.00 Build 0)  -->
<svg version="1.1" id="レイヤー_1" xmlns="http://www.w3.org/2000/svg" xmlns:xlink="http://www.w3.org/1999/xlink" x="0px"
	 y="0px" width="270.1882019px" height="45px" viewBox="0 0 270.1882019 45" style="enable-background:new 0 0 270.1882019 45;"
	 xml:space="preserve">
<style type="text/css">
	.st0{fill:#FFFFFF;}
</style>
<path class="st0" d="M24.9467144,36.840374c0,0-0.1299076-0.4677849-0.4678402-1.2504845
	c-0.337986-0.7827034-0.8698845-1.8865089-1.6748428-3.1476898c-1.6027527-2.5162277-4.2621346-5.6639156-8.5287189-8.2032166
	c-3.3646698-2.0056648-6.9197235-3.1521397-9.6387119-3.7934246c-2.7225714-0.6474743-4.593009-0.7782497-4.593009-0.7782497
	L0,19.6130772l0.043592-0.054287h0.00532h16.7434978c-0.0498352-0.2712688-0.2623653-1.4568844-0.6848774-3.1201096
	c-0.4794025-1.9024677-1.2185116-4.4364481-2.2671623-6.9473019c-0.9952326-2.3916955-2.2991371-4.7451196-3.3655939-6.5061703
	C9.4208059,1.2285553,8.6105824,0.0705723,8.6105824,0.0705723V0.065198l0.0061884-0.0596065l0.0711689-0.0053201
	c0.0044518,0.0053201,7.4623175,6.0445728,11.913909,16.5318356c3.6866436,8.6799068,4.4471416,20.2860661,4.4471416,20.2860661
	l-0.0533638,0.0053177l0.0533638-0.0106392l-0.0533638,0.0106392l0.0533638-0.0053177l-0.0435925,0.0551529h-0.0097713
	L24.9467144,36.840374z"/>
<path class="st0" d="M25.52215,36.8728371l-0.0480423-0.038269L22.7391052,8.4040222V8.3773136l4.0602417-8.2414351
	l0.0551548-0.0222574l0.0427227,0.0498349V8.186985h0.3433075V0.1634563l0.0373497-0.0498349l0.0596066,0.0222574
	l4.0495472,8.2414351l0.0053196,0.0267086L28.6645184,36.834568l-0.048912,0.038269H25.52215z M28.6156063,36.8238716v-0.0542336
	V36.8238716z"/>
<path class="st0" d="M29.1323586,36.8730011l-0.0445156-0.0550995c0,0,0.7613678-11.6052914,4.4462719-20.2861214
	C37.9865799,6.0445728,45.4506874,0.0062429,45.4506874,0.0062429V0l0.0755653,0.0062429l0.0062408,0.0586836
	c-0.0062408,0.0062429-0.8164673,1.1633574-1.8811302,2.9200108c-1.0486488,1.7610507-2.3649864,4.1144743-3.3593521,6.5070386
	c-1.0441971,2.5108547-1.7833061,5.0448341-2.2671623,6.9464321c-0.4126854,1.6632271-0.6306458,2.8488426-0.6795578,3.1201115
	h16.739048l0.0587387,0.0551548l-0.054287,0.048912l-0.0044518,0.0053196
	c-0.0889206,0.0053749-1.930912,0.1521111-4.5841064,0.7773819c-2.7118759,0.6412849-6.278492,1.7886276-9.6431618,3.7934246
	c-4.2612648,2.539299-6.9259682,5.6869869-8.5233994,8.2040863c-1.6098633,2.5170975-2.1426296,4.3919868-2.1426296,4.3973045
	l-0.0533638-0.0160141l0.0533638,0.0160141l-0.0533638,0.0382729L29.1323586,36.8730011z"/>
<path class="st0" d="M7.6098123,28.5609951c-0.0756207-0.1680717-0.1894593-0.2828331-0.3362498-0.3361969
	c-0.1467361-0.0666637-0.2881522-0.0666637-0.4233255-0.0168819c-0.1307759,0.0702457-0.22328,0.1521091-0.2721915,0.2819633
	c-0.043592,0.114706-0.0764899,0.2614975-0.0933728,0.4082336c-0.0151458,0.1574306-0.0213346,0.3264236-0.0213346,0.4998684
	c0,0.1743145-0.0160146,0.3424397-0.0596066,0.5051899c-0.0338202,0.168993-0.1031981,0.321104-0.1957021,0.4625206
	c-0.0986929,0.1467361-0.2499347,0.2668171-0.4633889,0.3593216c-0.1840849,0.0755653-0.3628502,0.1254005-0.5469894,0.1254005
	c-0.1858768,0-0.3593216-0.0498352-0.5291839-0.1254005c-0.1672564-0.0818653-0.3139925-0.1912518-0.4500885-0.3486824
	c-0.1476049-0.1520557-0.2552547-0.336195-0.3530788-0.5541019c-0.092504-0.2010212-0.1476588-0.3913498-0.179688-0.5594749
	c-0.0266545-0.1796341-0.0266545-0.3210487-0.0053201-0.4304371c0.1458676-0.021389,0.2828321-0.0374031,0.3904819-0.0649261
	c0.1315904-0.0267086,0.2508035-0.054287,0.381525-0.0925045l0.048912,0.1093884L4.3108826,28.968359
	c-0.0551553,0.0711708-0.092504,0.1529789-0.1200814,0.2401638c-0.0319748,0.0809402-0.0435376,0.1787643-0.0319748,0.2819633
	c0.0106401,0.1085186,0.0435376,0.2063427,0.0871296,0.3210487c0.1022754,0.2223587,0.2330513,0.3584538,0.3904819,0.4127407
	c0.1520562,0.0550995,0.3112783,0.048912,0.4678402-0.0267086c0.136096-0.0604763,0.2339201-0.1529789,0.2775121-0.2721386
	c0.0595522-0.1192131,0.0933728-0.2553082,0.0978241-0.408287c0.0150914-0.1511879,0.0275774-0.3148613,0.0275774-0.4891758
	c0-0.1680698,0.0213346-0.3370647,0.0533638-0.4998684c0.0382175-0.1680717,0.1031442-0.3148613,0.207211-0.4509029
	c0.092504-0.1467915,0.2436914-0.2606297,0.4562769-0.3531322c0.1894598-0.0871315,0.3753362-0.130722,0.5497041-0.1254025
	c0.1796336,0,0.3406472,0.038271,0.4944949,0.103199c0.1521106,0.0649261,0.2828321,0.1636181,0.4073648,0.2934723
	c0.1129704,0.1245327,0.2063427,0.2668171,0.2828321,0.4358101c0.0978246,0.1957035,0.1414161,0.3851624,0.1627507,0.5487823
	c0.0222578,0.1788177,0.0160141,0.3317986-0.0266542,0.4785347c-0.0978246,0-0.1850085,0.0106926-0.2775126,0.0266533
	c-0.092504,0.0053749-0.207211,0.0222588-0.3424382,0.0382729l-0.043592-0.08181
	C7.697865,29.1800766,7.7512283,28.8874187,7.6098123,28.5609951"/>
<path class="st0" d="M7.4419045,30.5721416c0.2828865-0.0596066,0.5541553-0.0596066,0.8316131-0.0044498
	c0.2766438,0.0533619,0.5372181,0.1618805,0.793396,0.3415146c0.2552547,0.1636734,0.4838543,0.3967247,0.6848774,0.690197
	c0.1796331,0.2606297,0.3157291,0.5274467,0.3966703,0.8156548c0.081809,0.2774582,0.1085186,0.5496483,0.081809,0.820919
	c-0.0320282,0.2721367-0.1254015,0.5327644-0.2872829,0.7835693c-0.1520567,0.2499352-0.3753366,0.4776115-0.6795034,0.6848755
	c-0.2499342,0.1725235-0.5061111,0.2765884-0.7942638,0.3308754c-0.2819633,0.0542336-0.5558925,0.0542336-0.8378563-0.0053749
	c-0.2721376-0.0542297-0.5362949-0.1689377-0.7817783-0.3370628c-0.2499342-0.1734467-0.4678402-0.3966713-0.6635423-0.6795044
	c-0.1787653-0.2606277-0.3157296-0.5327644-0.4073653-0.8040886c-0.092504-0.2721367-0.1254015-0.5434074-0.0978241-0.8155975
	c0.0267091-0.2721405,0.1147614-0.5336361,0.2766438-0.7835712c0.1520557-0.254385,0.386899-0.4936256,0.7008371-0.7008915
	C6.8984976,30.735815,7.1644468,30.6263752,7.4419045,30.5721416 M9.3391056,33.339119
	c0.1298532-0.1733894,0.2285452-0.3415146,0.2774572-0.5273895c0.054287-0.1681252,0.0711699-0.3477592,0.0418005-0.5274467
	c-0.0195427-0.1787682-0.0907125-0.3468914-0.2054195-0.5051918c-0.1138382-0.168993-0.2553091-0.2988453-0.4340734-0.3797874
	C8.843688,31.3228149,8.65868,31.289917,8.4576569,31.289917c-0.2063427,0.0053196-0.4189281,0.0435925-0.6350417,0.1200809
	c-0.22328,0.0862617-0.4402628,0.2000999-0.6519799,0.3477592c-0.2668176,0.1796341-0.4678402,0.3584003-0.6154447,0.5380878
	c-0.1467905,0.1850052-0.2383714,0.3584518-0.2819633,0.5318985c-0.048912,0.1751823-0.048912,0.337986-0.0115633,0.5069809
	C6.2936931,33.49123,6.359488,33.6442108,6.4582353,33.779438c0.1031442,0.152977,0.2285457,0.2721367,0.3859758,0.3646393
	c0.1574306,0.0925064,0.3362503,0.1414185,0.5381413,0.1574326c0.1956482,0.0106926,0.4135537-0.0160141,0.6563764-0.0925064
	c0.2401638-0.0756187,0.5016613-0.2063408,0.772007-0.3913498C9.0286417,33.6655426,9.2030096,33.5081139,9.3391056,33.339119"/>
<path class="st0" d="M9.5780201,36.8507423c-0.2179604,0.2285995-0.3807106,0.4136086-0.4954176,0.5657196l-0.1521111-0.1681252
	l-0.1957026-0.1956482l-0.1885366-0.185009l-0.1698618-0.1521072c0.1903286-0.1636734,0.3699617-0.3370667,0.5594215-0.5114326
	c0.1903276-0.1796341,0.4029131-0.3966713,0.6368332-0.6359138l0.5763588-0.5816765
	c0.2276773-0.239296,0.435811-0.4509583,0.6145763-0.6412849c0.1788197-0.1912498,0.3478127-0.3913498,0.5274467-0.5870552
	l0.1351728,0.1796913l0.1957026,0.1894569l0.1965714,0.185009l0.1734447,0.1467361
	c-0.1031981,0.0649261-0.2330513,0.185009-0.4073648,0.3530769c-0.1787653,0.1681252-0.3700161,0.3593788-0.5710392,0.5710411
	l-0.4091015,0.4126854c0.2134533-0.0213356,0.4411306-0.0426712,0.686614-0.0702477
	c0.2499342-0.0222588,0.488306-0.054287,0.7222261-0.0764885c0.2285995-0.0267105,0.4349422-0.0587387,0.6208191-0.0809441
	c0.1885366-0.0267067,0.3255014-0.0542831,0.4233799-0.0649261l0.1085186,0.1360435l0.1093864,0.1183434l0.1236105,0.1147079
	l0.1539021,0.1254005c-0.0987473,0-0.2508574,0-0.4527493,0.0106964c-0.2107935,0.0160141-0.4286995,0.0275764-0.6723909,0.0435905
	c-0.2357111,0.0106392-0.4625196,0.0266533-0.6857452,0.0426712c-0.22328,0.0160141-0.3922739,0.0338173-0.5221272,0.0444603
	c-0.0373487,0.2330513-0.0978241,0.4891739-0.1467361,0.7658157c-0.0542316,0.2783813-0.1085186,0.5603447-0.1574306,0.8262939
	c-0.0435915,0.2721367-0.0933723,0.5167542-0.1307211,0.7506714c-0.0427237,0.2276764-0.0658493,0.4073677-0.0756207,0.5380859
	c-0.0756216-0.0925026-0.1476593-0.1743126-0.2125864-0.2392387l-0.1956472-0.185009l-0.1894598-0.1796875l-0.1957026-0.1840858
	c0.0703011-0.3593216,0.1521101-0.7230949,0.2223568-1.0877876c0.0818644-0.3584557,0.1628056-0.7284164,0.2339201-1.0921898
	l-0.0106401-0.0053749C10.0511799,36.3509293,9.7905512,36.6221962,9.5780201,36.8507423"/>
<path class="st0" d="M14.3127708,41.5747986c-0.0809412-0.0649261-0.1520567-0.1200256-0.2169828-0.1680679l-0.2170372-0.1414185
	l-0.2063427-0.1467896c-0.0711699-0.0542336-0.1414156-0.0978241-0.22328-0.1360397
	c0.0596066-0.2010231,0.1254559-0.4073677,0.1788197-0.6146317c0.0657949-0.2009697,0.1254015-0.4180069,0.1751823-0.6297226
	c-0.1040678-0.0764885-0.2018919-0.1529808-0.3112783-0.2240944c-0.103199-0.0747528-0.2063427-0.1521111-0.3201809-0.2223587
	c-0.087184-0.0649261-0.1681252-0.1245308-0.2553091-0.1796875c-0.0871296-0.0586815-0.1796341-0.1085167-0.2605753-0.1734428
	c-0.1912508,0.1254005-0.3655643,0.2552528-0.5336351,0.3753357c-0.1788187,0.1352272-0.3433609,0.2712669-0.5007915,0.3913498
	l-0.112916-0.0871277l-0.1138926-0.0756226l-0.1200275-0.0871849l-0.1405478-0.08181
	c0.1075964-0.0596046,0.2374487-0.1414146,0.4118166-0.2454834c0.1689939-0.1022758,0.3593216-0.2214851,0.5763588-0.3637733
	c0.2116632-0.13517,0.4464512-0.2819633,0.6803713-0.4402618c0.2437458-0.1565628,0.4936266-0.3148613,0.7382412-0.4776115
	c0.2499342-0.1583519,0.4891748-0.3211021,0.7284689-0.4794006c0.2401085-0.1565628,0.4624662-0.3095436,0.6634884-0.4393959
	l0.0862608,0.0702477l0.0880527,0.0818634l0.0978241,0.0542336l0.1031981,0.048912
	c-0.087184,0.3531303-0.1796875,0.739109-0.2819633,1.1411514c-0.1040668,0.402916-0.2018909,0.7995834-0.2943945,1.1962547
	c-0.0871305,0.3967247-0.1743145,0.7666893-0.2499352,1.1367035C14.4052744,41.0100594,14.344799,41.3195457,14.3127708,41.5747986
	 M14.2692327,37.8783302c-0.22328,0.136097-0.4447145,0.2828865-0.6475277,0.4189301
	c-0.216115,0.1405449-0.4287004,0.2935257-0.6341743,0.4393921l0.906312,0.6315155
	c0.0711689-0.2561798,0.1316442-0.4998703,0.1965704-0.7453537C14.1437769,38.3791237,14.2149467,38.13451,14.2692327,37.8783302"/>
<path class="st0" d="M20.2980633,44.0322914c-0.206398-0.0978241-0.375391-0.2392426-0.5052452-0.4082336
	c-0.1254005-0.1627502-0.217905-0.3477592-0.2552528-0.5594215c-0.048912-0.217907-0.0275784-0.4625206,0.0373478-0.7444839
	c0.0382729-0.1467361,0.0711689-0.2934723,0.103199-0.4135551c0.0391407-0.1307755,0.0711689-0.2392921,0.0871296-0.3424377
	c0.0275764-0.1085167,0.0596066-0.2063408,0.0809402-0.3095398c0.0275784-0.0978241,0.0551548-0.1956482,0.0818653-0.2988472
	c0.0773582-0.3210487,0.136095-0.571907,0.1796322-0.7728767c0.0498352-0.1957016,0.0764904-0.341568,0.0925045-0.4447136
	c0.0756207,0.0266571,0.1521111,0.0542336,0.2339211,0.0862617c0.0818634,0.0213356,0.1628036,0.0435905,0.2392941,0.0711708
	c0.0773582,0.0106392,0.1627502,0.0266533,0.2445602,0.0426674c0.0809402,0.0168839,0.168993,0.0328979,0.2446136,0.0444603
	c-0.1254005,0.3691483-0.2446136,0.7115326-0.3308754,1.0379562c-0.0933723,0.3255539-0.1814251,0.6528473-0.2614975,0.9899673
	c-0.087183,0.3583984-0.136095,0.6510544-0.136095,0.8858452c-0.0053215,0.2276764,0.0373478,0.406498,0.1040668,0.5594749
	c0.0640583,0.1414146,0.1734447,0.2499352,0.303297,0.3264236c0.1307755,0.0755692,0.2988472,0.1404953,0.4891758,0.1903305
	c0.2339191,0.0533638,0.4304905,0.0373459,0.5923729-0.0435944c0.1636734-0.0871849,0.30509-0.2179031,0.4242477-0.3966713
	c0.1147614-0.174366,0.2170372-0.3913498,0.2935257-0.6359634c0.0711708-0.2508049,0.1467361-0.5167542,0.217907-0.7888908
	c0.0649261-0.2659492,0.1254005-0.5327644,0.1858768-0.8040886c0.0587368-0.2721367,0.1129684-0.5443306,0.1618805-0.8102264
	l0.1521111,0.0542336l0.1422844,0.0382156l0.1467915,0.0329552l0.1520557,0.0160141
	c-0.0275784,0.0862617-0.0604744,0.1956482-0.1102562,0.3423843c-0.0417995,0.141468-0.0916348,0.3104095-0.1405468,0.4945488
	c-0.0596066,0.1903267-0.1191597,0.3975945-0.185009,0.6199493c-0.0596066,0.2285461-0.1191578,0.4678421-0.1850071,0.7221718
	c-0.1680717,0.6804276-0.4402637,1.131382-0.8031139,1.3537407c-0.3709373,0.217907-0.8334045,0.2614975-1.4035206,0.1209488
	C20.7276306,44.2217522,20.5008221,44.1408081,20.2980633,44.0322914"/>
<path class="st0" d="M24.4568348,41.2163467v-0.4998131c0.1191578,0.0213318,0.2072105,0.0426674,0.2774582,0.0426674
	c0.0649261,0,0.1574306-0.0053215,0.2712688-0.0213356c0.4243011,0.4998703,0.8378563,0.9952888,1.2452202,1.4844627
	c0.4126854,0.4838562,0.8253708,0.9837227,1.262104,1.4835396l0.0150928-0.5220718l0.0267086-0.5816803
	c0.0062428-0.2001534,0.0168839-0.3913498,0.0222569-0.5870514c0.0053215-0.1903305,0.0053215-0.3690948,0.0115643-0.5273933
	c0.0043964-0.1618843,0.0043964-0.303299,0.0043964-0.4189301c0-0.1129684-0.0043964-0.1957016-0.0106392-0.2330513
	c0.1093864,0.0213356,0.200098,0.0373497,0.2659473,0.0373497c0.0657959,0,0.16362-0.0044518,0.2721386-0.0204659
	c-0.0320282,0.3637733-0.0586834,0.7008934-0.08181,0.9944191c-0.0204659,0.2934723-0.0480423,0.5709839-0.0649261,0.8369331
	c-0.0106945,0.2552528-0.0320282,0.5158844-0.0435925,0.772007c-0.0097713,0.2553101-0.0204659,0.5274467-0.0328979,0.8209724
	L27.8766594,45c-0.0818081-0.0106926-0.168993-0.0222588-0.256176-0.0266533c-0.0925045,0-0.1689949,0-0.2329979,0.0043945
	c-0.7942638-0.9943619-1.631197-2.0002899-2.5286598-3.0115891c-0.0106945,0.1147614-0.0150928,0.2285995-0.0213356,0.3486786
	c-0.0053196,0.1075974-0.0115623,0.2383728-0.0115623,0.3583984l-0.0382729,0.7008934
	c-0.0053196,0.2401619-0.0106392,0.441185-0.0150909,0.6092567c-0.0053196,0.1734428-0.0053196,0.3095398-0.0053196,0.4349403
	v0.2881546l0.0053196,0.1734428l-0.1476593-0.0213318h-0.1298523c-0.0978241-0.0053215-0.185009-0.0053215-0.2828331,0
	c0.0106945-0.0328979,0.0266552-0.1521111,0.0426693-0.3424416c0.0231266-0.2010193,0.0435925-0.4349403,0.0764904-0.7230949
	c0.0169373-0.2828293,0.038271-0.586998,0.0596066-0.9241142c0.0284462-0.3255577,0.0391407-0.6412849,0.0551548-0.9463768
	C24.4568348,41.6406479,24.4568348,41.4067307,24.4568348,41.2163467"/>
<path class="st0" d="M29.0933266,41.4933701c-0.0435925-0.2552528-0.0809402-0.5113792-0.1245327-0.772007
	c0.0702457,0,0.1422844,0,0.2223568-0.0053177c0.08181,0,0.1743145-0.0044518,0.2668171-0.0213356
	c0.1031456-0.0115623,0.1894608-0.0275764,0.2721386-0.0382729c0.0818634-0.0160141,0.1521111-0.0275764,0.2170372-0.0497818
	c0.0168819,0.2614975,0.0328979,0.5229416,0.0596066,0.7835693c0.0160141,0.2605782,0.0426693,0.555027,0.087183,0.885849
	l0.0924511,0.8209724c0.0320282,0.3264236,0.0711689,0.6252708,0.1085167,0.875206
	c0.0328979,0.2614975,0.0764904,0.5167503,0.1192131,0.7559891c-0.0640564,0-0.1414146,0.0106964-0.22328,0.0160141
	c-0.0809402,0.0106964-0.1680698,0.0222588-0.2658939,0.0267105c-0.103199,0.0115623-0.1948338,0.027523-0.2775116,0.0328979
	c-0.0809422,0.0053215-0.1467915,0.0222015-0.2161694,0.0435905c-0.0061874-0.2553062-0.0266533-0.5052414-0.048912-0.7666855
	c-0.0275764-0.2543869-0.048912-0.5541573-0.0871296-0.8912201l-0.0934258-0.8102798
	C29.1644421,42.0421524,29.1253014,41.7495461,29.0933266,41.4933701"/>
<path class="st0" d="M33.416317,41.4008675c0.0693207-0.5549698,0.1236076-1.0761757,0.1502647-1.5760422
	c0.1040649,0,0.1965675-0.0168839,0.2721901-0.0373497c0.0711708-0.0168839,0.1529808-0.0498352,0.2454834-0.0933723
	c-0.0328979,0.2552528-0.0871849,0.5594215-0.136097,0.924118c-0.0604744,0.3583984-0.1138382,0.7337341-0.1689911,1.1357765
	c-0.0533638,0.3975945-0.1147079,0.8049049-0.1618843,1.2131958c-0.0507011,0.4180031-0.0933723,0.7977905-0.1200829,1.1517906
	c-0.080883,0.0160179-0.1689911,0.032032-0.2668152,0.0542336c-0.0925064,0.0222588-0.1734467,0.0489655-0.2499352,0.0871849
	c-0.1022758-0.1521111-0.217907-0.321106-0.3530769-0.5212059c-0.1476593-0.201889-0.2997704-0.4189262-0.4562798-0.6421509
	c-0.152977-0.2285995-0.321104-0.4562798-0.4891739-0.6955719c-0.1699162-0.2285461-0.3379879-0.4624672-0.5007381-0.6795044
	c-0.1565609-0.2232246-0.3095398-0.4242477-0.4403172-0.6145744c-0.1422844-0.1894608-0.2605743-0.3477592-0.3637733-0.4785347
	c0.0916367-0.0222054,0.1841412-0.0382195,0.272192-0.048912c0.0960331-0.0160141,0.1787663-0.0320282,0.265028-0.0542336
	c0.087183-0.021389,0.1743679-0.048912,0.256176-0.0756187c0.0871849-0.0328979,0.1680717-0.048912,0.2561245-0.0871849
	c0.1245327,0.2010231,0.2553082,0.4127388,0.3967247,0.6359634c0.1467361,0.2170372,0.2926044,0.4402618,0.4447155,0.6741829
	c0.152977,0.2330513,0.3104095,0.4562798,0.4678383,0.6955185c0.1582985,0.2223549,0.3210487,0.4518242,0.4731598,0.6741829
	C33.2846718,42.4993515,33.3557854,41.9452515,33.416317,41.4008675"/>
<path class="st0" d="M34.6322212,40.2591133c-0.1129684-0.2392387-0.2277298-0.4722366-0.341568-0.7008362
	c0.1734428-0.0649261,0.341568-0.1307755,0.5061111-0.1957016c0.1618271-0.0649261,0.330822-0.130722,0.4936256-0.1956482
	c0.2774582-0.1192131,0.5229416-0.2285995,0.7337341-0.321106c0.2081337-0.0978241,0.3486824-0.1680679,0.4189301-0.2000961
	c0.0106926,0.0586815,0.0391388,0.1458664,0.0818634,0.2436905l0.0657959,0.1307755l0.0649261,0.1031456
	c-0.1147079,0.0435905-0.2339211,0.0818062-0.370018,0.1360931c-0.130722,0.0382195-0.2614975,0.08181-0.3806572,0.1298523
	c-0.1191559,0.0435944-0.2330513,0.08181-0.3308754,0.1254044c-0.09869,0.0320282-0.1645393,0.0658493-0.2072105,0.08181
	c0.0657959,0.2063942,0.1467361,0.4073639,0.2285461,0.608387c0.0880547,0.2063408,0.1734467,0.4020462,0.2553101,0.6092567
	c0.2454834-0.0978241,0.450901-0.2072105,0.6466064-0.2881546c0.1911964-0.0925026,0.3913498-0.1903267,0.5985603-0.2935257
	l0.0382729,0.1627502l0.0426674,0.0978241l0.0435905,0.0934258l0.0827332,0.1298561
	c-0.441185,0.1467361-0.8716736,0.3041649-1.2834396,0.4883041c0.0426712,0.1147079,0.0907135,0.2285461,0.1414185,0.3530807
	c0.0533638,0.1156273,0.0978241,0.2401619,0.1520538,0.3593216c0.1085205,0.2401619,0.2010231,0.4625206,0.3095436,0.6848755
	c0.2063408-0.0862617,0.4189262-0.1841393,0.6243477-0.2819633c0.206398-0.1040649,0.4136086-0.2116623,0.6208191-0.3255005
	l0.0267067,0.1138382l0.0542336,0.1405487l0.0649261,0.130722l0.054287,0.0818062
	c-0.1022758,0.0382729-0.2285995,0.0925064-0.3753357,0.1467934c-0.1467896,0.0649261-0.3468895,0.1467361-0.6021461,0.2552528
	c-0.2285995,0.0978241-0.4136086,0.1743126-0.5558929,0.2339211c-0.13517,0.0596046-0.2436905,0.1031418-0.3255539,0.1414146
	c-0.0862617,0.0320282-0.1467361,0.0596085-0.1894073,0.08181l-0.1040649,0.0533638
	c-0.0818634-0.2329979-0.1788177-0.4669189-0.2766418-0.7115326c-0.0880547-0.2446136-0.2063446-0.5167503-0.3308792-0.8262939
	l-0.3272896-0.7613106C34.8554459,40.770546,34.7353668,40.5037308,34.6322212,40.2591133"/>
<path class="st0" d="M38.856842,39.8461037l0.130722,0.2116623c0.1743698,0.2828331,0.3308754,0.5327682,0.4776649,0.7506714
	c0.1351738,0.2232819,0.2837029,0.4296227,0.4358139,0.6305923l-0.2010231,0.1138916
	c-0.0711708,0.0435371-0.1476593,0.0871315-0.2347908,0.1360435c-0.0863152,0.0604744-0.1689911,0.103199-0.2277298,0.1467896
	l-0.1840858,0.1254005c-0.1209488-0.2179031-0.2401619-0.4456367-0.3753357-0.6688614
	c-0.1254005-0.2285995-0.2783813-0.4838562-0.4527473-0.7666855l-0.4286995-0.70084
	c-0.1734467-0.2828865-0.3308754-0.5328178-0.4722939-0.7551765c-0.1414146-0.217907-0.2943954-0.4242477-0.4464493-0.6474724
	l0.212532-0.0978241c0.0640564-0.0382729,0.1467896-0.0818634,0.2339172-0.1307755
	c0.0863152-0.0542336,0.1947823-0.1298561,0.3095436-0.2063446c0.1085167-0.0871277,0.2552528-0.1787643,0.4349403-0.2828331
	c0.1245346-0.0809402,0.2392426-0.1414146,0.3424377-0.2010231c0.0933762-0.048912,0.1787682-0.0871277,0.2508049-0.1138382
	l0.2107925-0.048912l0.1858788-0.0115623c0.1467896,0.0115623,0.2979774,0.0551567,0.4189262,0.136097
	c0.1227417,0.0711136,0.2375031,0.185009,0.3353271,0.3370628c0.1574326,0.2561798,0.2081337,0.506115,0.1689949,0.739109
	c-0.0382729,0.2499352-0.1689949,0.4785347-0.3922729,0.7017632c0.3486824,0.1903801,0.7026825,0.3691444,1.0717773,0.5443268
	c0.3646927,0.1788216,0.728466,0.3575859,1.0975609,0.5212059c-0.0809402,0.0320282-0.1681252,0.0863152-0.2436905,0.1245308
	c-0.0764923,0.0551567-0.1529808,0.0987473-0.2339211,0.1467934c-0.0756226,0.048912-0.1574326,0.0933723-0.2401619,0.1476021
	l-0.2214355,0.1458702l-1.9078407-1.0485992L38.856842,39.8461037z M38.8301888,38.068985
	c-0.0881081-0.0711136-0.1805573-0.1093864-0.2668724-0.1200256c-0.0978241-0.0053749-0.1965714,0.0160141-0.3050346,0.0649261
	c-0.1085205,0.049778-0.2383728,0.1147041-0.3736,0.201889c0.2766457,0.4722939,0.5541573,0.9401321,0.842308,1.4079742
	L38.79105,39.60149l0.049778-0.0373497c0.2285995-0.136097,0.3646965-0.305088,0.4136086-0.5007362
	c0.0373497-0.1903305-0.0062408-0.4136086-0.1636734-0.6635437C38.9973907,38.2478027,38.9119987,38.139286,38.8301888,38.068985"/>
<path class="st0" d="M40.8139229,36.0790634c-0.1405487,0.1254539-0.2232819,0.2553101-0.2437477,0.4180603
	c-0.0222015,0.152977,0.0151482,0.2943954,0.1129723,0.4029121c0.0925026,0.1138382,0.2063408,0.1796341,0.3371162,0.1956482
	c0.130722,0.0106926,0.2658958,0.0053749,0.4233246-0.027523c0.1583557-0.0267105,0.3148613-0.0703011,0.4794044-0.1085205
	c0.1628036-0.0480423,0.3308754-0.0764885,0.5043221-0.0863152c0.1752357-0.0061874,0.337986,0.0160179,0.5069809,0.0703011
	c0.1618805,0.0479889,0.320179,0.1689949,0.4562759,0.3424416c0.136097,0.1627502,0.2285995,0.320179,0.2775116,0.4998131
	c0.0426674,0.1743698,0.048912,0.359375,0.0213356,0.5381393c-0.0382729,0.1805573-0.1040688,0.3593216-0.2116623,0.5273933
	c-0.1085205,0.1796875-0.2561798,0.3424377-0.4465065,0.4945488c-0.1618805,0.1476593-0.3264236,0.2508049-0.488308,0.321106
	c-0.1636734,0.0755653-0.2997131,0.1138382-0.4091568,0.1200256c-0.0586815-0.131588-0.1173668-0.2561226-0.167202-0.3593216
	c-0.0551529-0.1138382-0.120079-0.2223549-0.1903267-0.3424377l0.0862617-0.0764885
	c0.0711708,0.0605278,0.1467896,0.103199,0.2294693,0.1360931c0.085392,0.0382729,0.174366,0.054287,0.2650795,0.054287
	c0.0933723,0.0061913,0.1858749-0.0160141,0.283699-0.054287c0.0916367-0.0328941,0.1903305-0.0915794,0.2819633-0.1680679
	c0.185009-0.1529808,0.2819633-0.3157845,0.2943954-0.4838562c0.0044518-0.1636734-0.0391388-0.3157845-0.1476593-0.441185
	c-0.0969543-0.1191597-0.2116623-0.1840858-0.3424377-0.2000999c-0.130722-0.0160141-0.2712669-0.0115623-0.4233246,0.0160141
	c-0.1467896,0.0275764-0.305088,0.0649261-0.4633904,0.1138382c-0.1725731,0.0435944-0.3406448,0.0702477-0.505188,0.0764923
	c-0.1689911,0.0106926-0.3255539-0.0106964-0.4945488-0.0702477c-0.1574287-0.0551567-0.3148613-0.1689949-0.4615974-0.3486824
	c-0.1369629-0.1627502-0.2223549-0.3264236-0.2721901-0.4998703c-0.0435944-0.1636162-0.0533638-0.3317413-0.0266571-0.5007362
	c0.0150909-0.1618805,0.08181-0.3148613,0.1680717-0.4669724c0.0925026-0.1414146,0.2072639-0.2774582,0.3486824-0.3913498
	c0.1618805-0.1360435,0.3264236-0.2445602,0.4883041-0.3094864c0.1582985-0.0658493,0.3041687-0.0978241,0.4571457-0.1040688
	c0.032032,0.0987473,0.0657959,0.185009,0.0978241,0.2721405c0.0382729,0.0809402,0.0756226,0.1850052,0.136097,0.3148613
	l-0.0711708,0.0542831C41.3849068,35.8238068,41.0913811,35.851387,40.8139229,36.0790634"/>
<path class="st0" d="M42.5311623,35.1714478c-0.1894569-0.1796341-0.3913498-0.3530769-0.5923729-0.5220718l0.1680717-0.1467361
	l0.1965714-0.1903267l0.1841393-0.2010231l0.1360397-0.1734467c0.1796913,0.1894608,0.3655663,0.3806572,0.5443306,0.5594215
	c0.1788216,0.1957016,0.3904839,0.3967247,0.6359673,0.6306458l0.5923729,0.5656662
	c0.2392387,0.2339172,0.4562759,0.4349403,0.6519241,0.608387c0.1912498,0.1680679,0.386898,0.3423843,0.5763588,0.4998131
	l-0.1627502,0.1521111l-0.185009,0.1965714l-0.1894608,0.2010231l-0.1414146,0.1680679
	c-0.1743126-0.184082-0.3486252-0.369091-0.5336342-0.5541c-0.1796875-0.185009-0.3904839-0.3913498-0.6359673-0.6252708
	l-0.5914497-0.5656624C42.9402657,35.5414658,42.7276802,35.3342552,42.5311623,35.1714478"/>
<path class="st0" d="M44.200634,33.0941811l-0.1734467-0.1138382l-0.1254539,0.1796875
	c-0.0542336,0.0764885-0.1084671,0.1521111-0.16362,0.2392387c-0.054287,0.0809402-0.1093864,0.1681252-0.1627502,0.2606277
	c-0.054287,0.0871315-0.103199,0.1689949-0.1521111,0.2552567l-0.0933723-0.0978241l-0.1023293-0.0871849l-0.1084671-0.0746994
	l-0.120079-0.0604744c0.0862617-0.1147614,0.1689911-0.2063408,0.2285461-0.2882042
	c0.0756187-0.0925064,0.1458664-0.1787682,0.2170372-0.2712708c0.0702438-0.0871277,0.1467361-0.185009,0.2285995-0.2943954
	c0.0809402-0.1085167,0.1796341-0.2339211,0.2881508-0.3860283c0.1192131-0.1574326,0.217907-0.2828331,0.2935257-0.3913517
	c0.08181-0.1084652,0.1511879-0.2063427,0.217907-0.3041668c0.0649261-0.0871849,0.1298523-0.1787663,0.1903267-0.2721386
	c0.0649261-0.0809402,0.1245346-0.1734447,0.1939125-0.2819633l0.0987473,0.1022758l0.0996132,0.0880527l0.1182899,0.0702457
	l0.1093903,0.0649281l-0.1805573,0.1965694l-0.2063446,0.2223587c-0.0587349,0.0764885-0.120079,0.1414146-0.1796875,0.2223568
	L44.580368,32.24123l0.0605278,0.054287l0.0978241,0.08181l0.2597046,0.1903305l1.2087402,0.9081001
	c0.270401,0.2001534,0.5051918,0.3744698,0.7168541,0.5212059c0.2125854,0.152977,0.4251709,0.2943954,0.6359634,0.4296227
	l-0.1414146,0.1734428c-0.048912,0.0657959-0.103199,0.1360435-0.167202,0.217907l-0.1645432,0.212532l-0.1254539,0.1903801
	c-0.1849556-0.1636734-0.3859787-0.3273468-0.5870018-0.4847755c-0.2000961-0.1680717-0.4340172-0.3423843-0.707077-0.5487823
	l-1.2007637-0.9018593C44.3687019,33.2142601,44.2815208,33.149334,44.200634,33.0941811"/>
<path class="st0" d="M47.2172203,29.7131691c-0.0916367-0.1414165-0.1957054-0.2765903-0.2989006-0.4242477
	c-0.1084671-0.1404934-0.217907-0.2819099-0.3255043-0.4233265c-0.1085167-0.136095-0.2179031-0.272192-0.3211021-0.4073639
	l0.0871849-0.1094418l0.0756187-0.1191597l0.0551033-0.136095l0.0480423-0.136097
	c0.0764885,0.1138935,0.1627502,0.2668724,0.2775116,0.4349442c0.1085167,0.1796875,0.2392387,0.3637714,0.3700142,0.5710373
	c0.1351738,0.2010231,0.2721405,0.4019909,0.4189301,0.6198959c0.1351738,0.2010231,0.2721367,0.3958035,0.3904266,0.5710392
	c0.0933723,0.0426693,0.1787643,0.0969563,0.2614975,0.1351738c0.08181,0.054285,0.167202,0.1040668,0.2552567,0.1529789
	c0.1903267,0.0916348,0.3691483,0.1841393,0.5487785,0.2712688c0.1858788,0.0863152,0.3797874,0.1734447,0.5923767,0.2499352
	l-0.1414185,0.22328l-0.1147614,0.2223568c-0.0373497,0.0764885-0.0746994,0.1520557-0.1182899,0.2339191
	c-0.0435905,0.0755672-0.0764885,0.1520576-0.1093864,0.2339211c-0.1565628-0.0978241-0.321106-0.1965714-0.4838562-0.30509
	c-0.1565056-0.1075954-0.3255005-0.2063427-0.4936256-0.2926044c-0.0871849-0.048912-0.1698608-0.087183-0.2508011-0.1307755
	c-0.0863152-0.048912-0.1689949-0.08181-0.2553101-0.1254005c-0.2276764-0.0053215-0.4776115-0.0115643-0.7613144-0.0115643
	c-0.2819633,0-0.5487785,0.0062428-0.8094101,0.0062428h-0.7230911c-0.2125854,0.0106411-0.370018,0.0106411-0.4678421,0.0106411
	l0.1414146-0.2285461l0.1405487-0.2330513c0.0382195-0.08181,0.0773582-0.1627502,0.1147079-0.2445602l0.1085167-0.2392941
	c0.1583557,0.0053749,0.3477592,0.0106945,0.5443306,0.0160141c0.2010231,0.0115623,0.4020462,0.0160141,0.5932426,0.0222569
	c0.1894608,0,0.3637733,0.0053215,0.5212021,0.0053215c0.1565628,0.0053196,0.2819633,0,0.3584557-0.0053215l0.0062408-0.0106945
	C47.3915329,29.9906807,47.3096695,29.8492641,47.2172203,29.7131691"/>
<path class="st0" d="M63.1452827,24.7501984l1.5555763-0.2774582c0.4660492,1.6747894,1.5538406,5.5678291,5.7883911,5.5678291
	c2.0768356,0,3.4678726-1.2238865,3.4678726-3.0881348c0-4.6970768-10.2461777-4.3376999-10.2461777-10.0353832
	c0-3.5390387,3.1094131-5.0110683,7.3706818-5.0110683c2.4788284,0,3.968605,0.4447145,5.1871185,1.0317678l0.3629074,4.2567587
	h-1.1846924c-0.4296265-1.4186125-1.0602188-4.2292356-4.6650467-4.2292356c-1.8793945,0-3.3042526,1.0548925-3.3042526,2.7830458
	c0,4.2781487,10.5788422,4.0060101,10.5788422,9.9535732c0,3.9464035-4.1643066,5.3926468-8.127594,5.3926468
	c-2.8746262,0-4.762001-0.6359634-5.8275375-1.1091251L63.1452827,24.7501984z"/>
<path class="st0" d="M80.3941345,21.8637371c0-6.3985205,4.4569092-9.958025,9.5844803-9.958025
	c5.1524277,0,9.3380737,3.0383005,9.3380737,9.2296085c0,6.3931999-4.4577866,9.9589481-9.6102676,9.9589481
	C84.5913391,31.0942688,80.3941345,28.0657387,80.3941345,21.8637371 M90.0035324,30.0402451
	c3.7355499,0,5.4210358-3.8111763,5.4210358-8.2307415c0-4.5885563-1.6036224-8.8445015-5.7394867-8.8445015
	c-3.7133484,0-5.3943787,3.8103619-5.3943787,8.2361145C84.2907028,25.7834854,85.8952408,30.0402451,90.0035324,30.0402451"/>
<path class="st0" d="M100.7956619,29.9581089l0.6626205-0.0871296c1.3056412-0.1957016,1.3056412-0.5265236,1.3056412-3.283783
	V16.4388428c0-2.7830467,0-3.1156588-1.3056412-3.3113613l-0.6626205-0.0809412v-0.7230949h7.5610123v0.7230949
	l-0.6679382,0.0809412c-1.3101501,0.1957026-1.3101501,0.5283146-1.3101501,3.2891045v4.2514935h0.8316116
	c1.6143188,0,6.0125427-6.6218004,6.0125427-7.0344858c0-0.3913507-0.5274429-0.4180593-1.0006027-0.4732151l-1.0317688-0.1138382
	v-0.7230949h6.8699417v0.7230949l-0.5816803,0.0649261c-1.7939453,0.1414165-3.5879517,3.0009527-6.9801941,6.7249994
	c5.8924561,9.7303467,6.4252243,10.1216431,7.757576,10.1216431v0.7231483h-2.4459229
	c-2.3641205,0-3.0561066-0.0267086-6.9580002-6.6751633c-0.5826035-1.0602131-1.1375732-2.0883961-2.0554962-2.0883961h-0.4180069
	v4.6694984c0,2.7572594,0,3.0880814,1.3101501,3.283783l0.6679382,0.0871296v0.7231483h-7.5610123V29.9581089z"/>
<path class="st0" d="M117.5381317,29.9584351l0.6857452-0.168993c0.6466064-0.1903286,1.0379562-0.5265255,1.8162079-2.4459286
	l5.9458237-15.0197964c0.7008362-0.217906,1.1144409-0.2765894,1.6685486-0.3370647l5.8987045,15.6886044
	c0.4447174,1.1900673,0.7773743,1.9238567,1.755722,2.1470814l0.6848755,0.136097V30.68153H128.12854v-0.7230949l1.1135712-0.168993
	c0.5594177-0.08181,0.9463196-0.2499352,0.9463196-0.6359653c0-0.2881527-0.0826721-0.5594215-0.2232208-0.9507732
	l-1.5280609-4.1972065c-0.6137009-0.22328-1.9451828-0.3424377-2.7829895-0.3424377
	c-0.6635361,0-2.0866013,0.1191578-2.6140518,0.3700161l-1.0824127,3.0329266
	c-0.3104095,0.85919-0.5550232,1.7770653-0.5550232,1.9736347c0,0.4126854,0.2446136,0.5594769,0.7240143,0.6359653
	l1.4995575,0.2828331V30.68153h-6.0881119V29.9584351z M123.404808,22.7771587
	c0.68927-0.1084633,1.6676788-0.1627502,2.2822495-0.1627502c0.5763626,0,1.5538406,0.054287,2.3320923,0.136097
	l-2.3098831-6.3941231h-0.0551071L123.404808,22.7771587z"/>
<path class="st0" d="M169.8227692,17.6077919v1.619688c0.6955109-0.6199493,2.0269928-1.619688,4.391983-1.619688
	c2.5001678,0,4.2016602,1.1954403,4.2016602,4.94701v5.4789085c0,1.4782181,0.1414185,1.7886276,1.1357727,1.8695698
	l0.5887909,0.0551548V30.68153h-6.7907867v-0.7230949l0.5879211-0.0551548
	c0.9997406-0.0809422,1.1349182-0.3913517,1.1349182-1.8695698V24.087307c0-2.1959934,0-4.859827-2.8852692-4.859827
	c-1.1420288,0-1.8651733,0.5763588-2.3098907,1.0485973v7.7576332c0,1.4782181,0.1414185,1.7886276,1.1411591,1.8695698
	l0.5808105,0.0551548V30.68153h-6.7294617v-0.7230949l0.5817413-0.0551548
	c0.9507751-0.0809422,1.087738-0.3913517,1.087738-1.8695698v-6.5613251c0-0.9730282,0-2.2235699-0.8334045-2.2235699
	c-0.4180145,0-0.7817841,0.1414146-0.8903046,0.1636734v-0.8049583L169.8227692,17.6077919z"/>
<path class="st0" d="M186.6531219,17.6079006v10.4258652c0,1.4782715,0.1298523,1.7557297,1.135788,1.8696232l0.5870514,0.0550995
	v0.7231503h-6.7783661v-0.7231503l0.5701141-0.0550995c1.0059814-0.1138935,1.1473999-0.3913517,1.1473999-1.8696232v-6.5612717
	c0-0.9730301,0-2.2235699-0.8378601-2.2235699c-0.4126892,0-0.7773743,0.1414146-0.8796539,0.1636181v-0.804903
	L186.6531219,17.6079006z M182.8419495,13.3235092c0-1.0539703,0.831604-1.9184809,1.9416046-1.9184809
	c1.063736,0,1.9505157,0.8645105,1.9505157,1.9184809c0,1.1687317-0.8867798,1.9790106-1.9505157,1.9790106
	C183.6735535,15.3025198,182.8419495,14.4709063,182.8419495,13.3235092"/>
<path class="st0" d="M190.5445862,20.3633156c-0.5265808-1.2825165-0.722229-1.1357803-1.4729004-1.445322l-0.5318909-0.1689396
	v-0.7177734h7.4311523v0.7177734l-1.1428833,0.2223568c-0.4456482,0.1093884-0.8583221,0.1414165-0.8583221,0.4794044
	c0,0.3032436,0.1307678,0.6626186,0.2446136,0.9400768l2.6958618,7.0344849l2.4841461-6.8387814
	c0.1645355-0.4456387,0.2721863-0.9463749,0.2721863-1.1740532c0-0.299715-0.4189301-0.3317432-0.8591919-0.4411316
	l-1.1473389-0.2223568v-0.7177734h5.5348816v0.7177734l-0.5274506,0.1689396
	c-0.7186432,0.2490654-0.9356842,0.1628056-1.4684448,1.445322l-4.3973083,10.1439552
	c-0.5327759,0.3371181-0.9401398,0.4785347-1.6961212,0.586998L190.5445862,20.3633156z"/>
<path class="st0" d="M214.8008881,29.3168774c-0.7239685,0.5869999-2.4806213,1.7770653-5.2893982,1.7770653
	c-3.2784576,0-6.5070953-2.0866051-6.5070953-6.5604019c0-4.4204865,3.2010651-6.9259663,6.377243-6.9259663
	c4.4676056,0,5.1960297,2.9190884,5.5055695,4.5324802c-2.3916931,1.1153679-5.4842377,2.0012131-8.377533,2.6700764
	c0.3112793,1.6686001,1.1420288,4.6694984,4.9532013,4.6694984c1.4996033,0,2.6692047-0.6137085,3.0551758-0.8040371
	L214.8008881,29.3168774z M209.0383301,22.9183044c1.592926-0.4348888,2.511734-0.7880211,2.511734-0.7880211
	c-0.2392426-1.9567547-1.0335083-3.4625492-2.7839203-3.4625492c-2.4236755,0-2.4299164,4.3866653-2.4299164,4.8812141
	C206.3362274,23.5489483,207.4070892,23.3692608,209.0383301,22.9183044"/>
<path class="st0" d="M224.8249207,20.8363113c-0.8360596-0.3797321-2.0386047-0.8102245-2.4308319-0.8102245
	c-0.4179993,0-0.7488861,0.1147079-1.1135712,0.5603447v6.7569733c0,1.9736366,0,2.3320885,1.1687317,2.4788246l1.1082001,0.136097
	v0.7230949h-7.3386536v-0.7230949l0.58255-0.0551548c0.9997406-0.0809422,1.1411591-0.3913517,1.1411591-1.8695698v-6.4528065
	c0-0.9668407,0-2.2120075-0.8378601-2.2120075c-0.4126892,0-0.7159882,0.1031437-0.885849,0.1627502v-0.7284145l4.6694946-1.1953869
	c0.0880585,0.499815,0.2179108,1.0868683,0.2179108,1.9238014c0.5656586-0.586998,1.7343903-1.9238014,3.1476898-1.9238014
	c1.1740417,0,1.9300385,0.8422546,2.2564697,1.2229652L224.8249207,20.8363113z"/>
<path class="st0" d="M227.3193817,26.2836266h1.1100006c0.1680756,1.5334263,1.4186096,3.7569981,3.5043488,3.7569981
	c1.1642303,0,1.8330841-0.8378563,1.8330841-1.8384628c0-3.3104382-6.2624817-2.5002155-6.2624817-6.9526768
	c0-0.2223568,0-3.6413136,4.9567871-3.6413136c1.4746857,0,2.6692047,0.4233799,3.3380737,0.7764587l0.3104095,3.4465351h-1.1198273
	c-0.0756226-0.9187431-0.6901855-3.1637039-2.7500916-3.1637039c-0.8591919,0-1.5556335,0.7444839-1.5556335,1.7237015
	c0,2.9182205,6.2571564,2.4459286,6.2571564,6.6965523c0,2.1470814-1.5271759,4.0068798-5.2832031,4.0068798
	c-1.6481323,0-2.8381958-0.3646965-3.8388062-0.8591919L227.3193817,26.2836266z"/>
<path class="st0" d="M243.8771667,17.6079006v10.4258652c0,1.4782715,0.1360931,1.7557297,1.1420288,1.8696232l0.576355,0.0550995
	v0.7231503h-6.7836761v-0.7231503l0.5816803-0.0550995c0.9988098-0.1138935,1.1402283-0.3913517,1.1402283-1.8696232v-6.5612717
	c0-0.9730301,0-2.2235699-0.8298187-2.2235699c-0.4144897,0-0.7773285,0.1414146-0.8920898,0.1636181v-0.804903
	L243.8771667,17.6079006z M240.0615387,13.3235092c0-1.0539703,0.8369446-1.9184809,1.9513855-1.9184809
	c1.0602112,0,1.9407349,0.8645105,1.9407349,1.9184809c0,1.1687317-0.8805237,1.9790106-1.9407349,1.9790106
	C240.8984833,15.3025198,240.0615387,14.4709063,240.0615387,13.3235092"/>
<path class="st0" d="M248.4668121,16.83041v1.1900673h-2.109726v1.3697529h2.109726v6.8930702
	c0,2.0002899,0,4.810915,3.2285767,4.810915c1.9994202,0,3.5060883-0.8049603,4.1145325-1.1082573l-0.1894684-0.7230949
	c-0.3646851,0.1129704-0.7240601,0.2170372-1.4471588,0.2170372c-2.3640137-0.0275784-2.3640137-2.1364403-2.3640137-4.9461422
	v-5.143528h3.0276031v-1.3697529h-3.0214081v-3.3869286L248.4668121,16.83041z"/>
<path class="st0" d="M162.6031036,13.1276445l0.6688232-0.0808868v-0.7231493h-7.5610199v0.7231493l0.6679382,0.0808868
	c1.3056946,0.1957026,1.3056946,0.5283689,1.3056946,3.2891588v11.6488285
	c-0.7079926,0.4740276-2.2137909,1.4141598-3.9801636,1.4141598c-3.3380737,0-4.5067444-1.7450371-4.5067444-5.6104984v-7.4524899
	c0-2.7607899,0-3.0934563,1.3056946-3.2891588l0.6732635-0.0808868v-0.7231493h-7.56633v0.7231493l0.6679382,0.0808868
	c1.3101501,0.1957026,1.3101501,0.5283689,1.3101501,3.2891588v8.77952c0,2.8693085,0.9187317,5.8977833,5.9475555,5.8977833
	c3.1681519,0,5.343689-1.3270321,6.1486359-1.6249561v1.2122707h5.5873871v-0.7230949l-0.6688232-0.0871849
	c-1.3056946-0.1956482-1.3056946-0.5273914-1.3056946-3.2837296V16.4168034
	C161.2974091,13.6560135,161.2974091,13.3233471,162.6031036,13.1276445"/>
<path class="st0" d="M255.7394562,35.3125916c0.6030121-0.2605743,6.2508698-1.6089401,6.2943878-4.001503
	c0.0231323-1.0210724-0.3316956-1.6623573-0.6901855-2.4672623l-3.6635742-8.2904015
	c-0.4241943-0.9400768-0.4784851-1.2709522-1.3972168-1.5822849l-0.6955261-0.2223568v-0.7177753h7.4258423v0.7177753
	l-1.1473999,0.2223568c-0.4402771,0.1093864-0.8529358,0.1965714-0.8529358,0.4794025
	c0,0.3042221,0.1404724,0.6626205,0.2499084,0.9401321l2.7225952,6.9526768l2.5072632-6.9526768
	c0.0871887-0.2775116,0.249054-0.63591,0.249054-0.9401321c0-0.2828312-0.4189758-0.3700161-0.864563-0.4794025
	l-1.1349182-0.2223568v-0.7177753h5.4460144v0.7177753l-0.5274353,0.136095
	c-0.8859558,0.2561779-1.3101501,1.1251411-2.6692505,4.2834682l-3.7018127,8.6763783
	c-1.1633606,2.8693066-2.3479919,5.9040241-5.8870239,6.9197788L255.7394562,35.3125916z"/>
</svg>
